<mxfile host="app.diagrams.net" modified="2023-08-04T11:52:12.462Z" agent="Mozilla/5.0 (Windows NT 10.0; Win64; x64) AppleWebKit/537.36 (KHTML, like Gecko) Chrome/115.0.0.0 Safari/537.36 Edg/115.0.1901.188" etag="2iNhHsBI3ThqP_AC1uOF" version="21.6.6" type="github">
  <diagram name="第 1 页" id="zDQKW5oCCWMIj-81ja7N">
    <mxGraphModel dx="1647" dy="915" grid="1" gridSize="10" guides="1" tooltips="1" connect="1" arrows="1" fold="1" page="1" pageScale="1" pageWidth="827" pageHeight="1169" math="0" shadow="0">
      <root>
        <mxCell id="0" />
        <mxCell id="1" parent="0" />
        <mxCell id="jRnjlJVptEnsLb_HcwkW-24" style="edgeStyle=orthogonalEdgeStyle;rounded=0;orthogonalLoop=1;jettySize=auto;html=1;entryX=0.5;entryY=0;entryDx=0;entryDy=0;" edge="1" parent="1" source="jRnjlJVptEnsLb_HcwkW-18" target="jRnjlJVptEnsLb_HcwkW-20">
          <mxGeometry relative="1" as="geometry" />
        </mxCell>
        <mxCell id="jRnjlJVptEnsLb_HcwkW-25" value="端口映射" style="edgeLabel;html=1;align=center;verticalAlign=middle;resizable=0;points=[];" vertex="1" connectable="0" parent="jRnjlJVptEnsLb_HcwkW-24">
          <mxGeometry x="-0.0004" y="1" relative="1" as="geometry">
            <mxPoint as="offset" />
          </mxGeometry>
        </mxCell>
        <mxCell id="jRnjlJVptEnsLb_HcwkW-18" value="NAT网关" style="rounded=0;whiteSpace=wrap;html=1;verticalAlign=top;" vertex="1" parent="1">
          <mxGeometry x="160" y="400" width="540" height="70" as="geometry" />
        </mxCell>
        <mxCell id="jRnjlJVptEnsLb_HcwkW-19" style="edgeStyle=orthogonalEdgeStyle;rounded=0;orthogonalLoop=1;jettySize=auto;html=1;entryX=0.5;entryY=0;entryDx=0;entryDy=0;" edge="1" parent="1" source="jRnjlJVptEnsLb_HcwkW-14" target="jRnjlJVptEnsLb_HcwkW-18">
          <mxGeometry relative="1" as="geometry" />
        </mxCell>
        <mxCell id="jRnjlJVptEnsLb_HcwkW-14" value="" style="rounded=0;whiteSpace=wrap;html=1;" vertex="1" parent="1">
          <mxGeometry x="160" y="230" width="540" height="100" as="geometry" />
        </mxCell>
        <mxCell id="jRnjlJVptEnsLb_HcwkW-4" value="" style="shape=image;verticalLabelPosition=bottom;labelBackgroundColor=default;verticalAlign=top;aspect=fixed;imageAspect=0;image=data:image/png,iVBORw0KGgoAAAANSUhEUgAAADIAAAAyCAYAAAAeP4ixAAAAAXNSR0IArs4c6QAABHVJREFUaEPtmlvIjlkUx3/iRmGUUsRkaJBwhTEuRDnMICGnuHAIk7MZpZgp3IxSxpgxDo1jIeekGccmEmNmzAVGomFIDjeTcMOl/noe7W9/zz697/P25cuq92qvtfb6P3vttdfhbUIjoSaNBAfvgThOsjMwAugBfGj8xP7A+N0ETgD/leURZZzIZ8BAYCjQJ9Gwv4GzwAXgVKJsHfZqgAwC5gPjqzHAkD0M/AScr0RfJUB6A0uAGZVsGCGzE/geuB7B+5YlFcgkYD3QLmWTCnifAF8CB2JlU4DIjTbGKi6Jb0HmbkF1sUBWASuD2mrDsBrQ/l6KATIMOB1SVOP14cAZ3x4hIJ8Cv9fYyFj1A4DLLmYfkJ7AUeDj2J0i+R4Dl4CHQEugH6BIGKJ/gXHAjSJGH5AdJYfYZ8AGYCugqGRSB2AMsAzo6EGk0DwzBYgeu3OhT5SwfgzQpb0akBEIgVG0ctHgokfTdSKHSnyxLwIKGC8TgG93fXlAGcAEW1cREOVOJxM2DbH2BZRT5aTH9AugK9AMuAvsAm4bPC2ySKkLXkSf27lZEZB1wFch6yLXj1gnK5fdC7S35P8H5gHyhJzkXj869vkOWGquFQFRjtMr0tAQm9IM5U05/QXohFzUBniaLfru6T92pLOBdANuhaxLWB+Z1R0SUYi9FpDtD/yZ8Sg0v/Dwdzfd0QayKAuRCbZ6Wc0IE4qE94GPDG2KYCrGXLQY+CFftIFsAuaWhQJIAWLnVDrNXzy2bM7u1RsWG4gEpaAsigUyG9hmbaqgMMVjyK/AKNeJpF50pRs/Zw+UsmO5j0khIMeBtVnKYsrpnTgY+Jp1Lrx9IkojPog8DrmCnW7Ip80UwwdE0UlRyqYYEJJ5DrR2nUgskIlWzM/13QM6GZb5gNiXu1WWnnwd+SG9QGJcywWiqPgKuZYaDTpZuaRyrOaRIMTmda3QZd8HTLU204XTK2vfD7GFgCTYXY/Ve9lD4VdGS0FOoRK4lkC84deX38h4FVl3DCBK9JT8uaiWQBaazRA7aqnlqWzURSZ/6KWutWt1MVuuRUnjFU/rcwjwm4HyD+ATB2rlTMqdclJlpzqjDFJZUCf5LALyLbDcsZvWzPCoi7/HwTvLMjx0/1IArgFWmAKphZWyVzWszaxUAWBO1kRommWk31jlqDrzCu2xj20IVFRhJSW+UndLBYml0o165WnIWsd6dKkr+dBFLkryXHaFQnQqnqTmg5SH2kF6lVWKqvdVRKOBscD0VEs9/MntIOlSRafhS6jz/ghQ80yV5ass11LToG2JAKRKvTA1RgrHDaGWqcYI+0s2qFJ1k31jhhAQbdoQ4wQbbHC8EANESsu+sCmnUtpYId+0IcYLwXFCblzsieT8GjPsrkGH3j4hBY9pvjGCLZAKRPIaN6gTWcthqDqJheMDl09WAiTX9c6Pp+2PotiuPwvol9pqVbmqPwzo12B/GCg6ZbVcdUHVzvT9hUOPp+aSZgc+JZLV463GtarauGzh90DK/qLV6nsN3NraM2GPGioAAAAASUVORK5CYII=;" vertex="1" parent="1">
          <mxGeometry x="220" y="240" width="50" height="50" as="geometry" />
        </mxCell>
        <mxCell id="jRnjlJVptEnsLb_HcwkW-5" value="" style="shape=image;verticalLabelPosition=bottom;labelBackgroundColor=default;verticalAlign=top;aspect=fixed;imageAspect=0;image=data:image/png,iVBORw0KGgoAAAANSUhEUgAAADIAAAAyCAYAAAAeP4ixAAAAAXNSR0IArs4c6QAABHVJREFUaEPtmlvIjlkUx3/iRmGUUsRkaJBwhTEuRDnMICGnuHAIk7MZpZgp3IxSxpgxDo1jIeekGccmEmNmzAVGomFIDjeTcMOl/noe7W9/zz697/P25cuq92qvtfb6P3vttdfhbUIjoSaNBAfvgThOsjMwAugBfGj8xP7A+N0ETgD/leURZZzIZ8BAYCjQJ9Gwv4GzwAXgVKJsHfZqgAwC5gPjqzHAkD0M/AScr0RfJUB6A0uAGZVsGCGzE/geuB7B+5YlFcgkYD3QLmWTCnifAF8CB2JlU4DIjTbGKi6Jb0HmbkF1sUBWASuD2mrDsBrQ/l6KATIMOB1SVOP14cAZ3x4hIJ8Cv9fYyFj1A4DLLmYfkJ7AUeDj2J0i+R4Dl4CHQEugH6BIGKJ/gXHAjSJGH5AdJYfYZ8AGYCugqGRSB2AMsAzo6EGk0DwzBYgeu3OhT5SwfgzQpb0akBEIgVG0ctHgokfTdSKHSnyxLwIKGC8TgG93fXlAGcAEW1cREOVOJxM2DbH2BZRT5aTH9AugK9AMuAvsAm4bPC2ySKkLXkSf27lZEZB1wFch6yLXj1gnK5fdC7S35P8H5gHyhJzkXj869vkOWGquFQFRjtMr0tAQm9IM5U05/QXohFzUBniaLfru6T92pLOBdANuhaxLWB+Z1R0SUYi9FpDtD/yZ8Sg0v/Dwdzfd0QayKAuRCbZ6Wc0IE4qE94GPDG2KYCrGXLQY+CFftIFsAuaWhQJIAWLnVDrNXzy2bM7u1RsWG4gEpaAsigUyG9hmbaqgMMVjyK/AKNeJpF50pRs/Zw+UsmO5j0khIMeBtVnKYsrpnTgY+Jp1Lrx9IkojPog8DrmCnW7Ip80UwwdE0UlRyqYYEJJ5DrR2nUgskIlWzM/13QM6GZb5gNiXu1WWnnwd+SG9QGJcywWiqPgKuZYaDTpZuaRyrOaRIMTmda3QZd8HTLU204XTK2vfD7GFgCTYXY/Ve9lD4VdGS0FOoRK4lkC84deX38h4FVl3DCBK9JT8uaiWQBaazRA7aqnlqWzURSZ/6KWutWt1MVuuRUnjFU/rcwjwm4HyD+ATB2rlTMqdclJlpzqjDFJZUCf5LALyLbDcsZvWzPCoi7/HwTvLMjx0/1IArgFWmAKphZWyVzWszaxUAWBO1kRommWk31jlqDrzCu2xj20IVFRhJSW+UndLBYml0o165WnIWsd6dKkr+dBFLkryXHaFQnQqnqTmg5SH2kF6lVWKqvdVRKOBscD0VEs9/MntIOlSRafhS6jz/ghQ80yV5ass11LToG2JAKRKvTA1RgrHDaGWqcYI+0s2qFJ1k31jhhAQbdoQ4wQbbHC8EANESsu+sCmnUtpYId+0IcYLwXFCblzsieT8GjPsrkGH3j4hBY9pvjGCLZAKRPIaN6gTWcthqDqJheMDl09WAiTX9c6Pp+2PotiuPwvol9pqVbmqPwzo12B/GCg6ZbVcdUHVzvT9hUOPp+aSZgc+JZLV463GtarauGzh90DK/qLV6nsN3NraM2GPGioAAAAASUVORK5CYII=;" vertex="1" parent="1">
          <mxGeometry x="332.5" y="240" width="50" height="50" as="geometry" />
        </mxCell>
        <mxCell id="jRnjlJVptEnsLb_HcwkW-6" value="王知之小程序" style="text;html=1;strokeColor=none;fillColor=none;align=center;verticalAlign=middle;whiteSpace=wrap;rounded=0;" vertex="1" parent="1">
          <mxGeometry x="207.5" y="290" width="75" height="30" as="geometry" />
        </mxCell>
        <mxCell id="jRnjlJVptEnsLb_HcwkW-7" value="LM小程序" style="text;html=1;strokeColor=none;fillColor=none;align=center;verticalAlign=middle;whiteSpace=wrap;rounded=0;" vertex="1" parent="1">
          <mxGeometry x="320" y="290" width="75" height="30" as="geometry" />
        </mxCell>
        <mxCell id="jRnjlJVptEnsLb_HcwkW-8" value="" style="shape=image;verticalLabelPosition=bottom;labelBackgroundColor=default;verticalAlign=top;aspect=fixed;imageAspect=0;image=data:image/png,iVBORw0KGgoAAAANSUhEUgAAAJYAAACWCAYAAAA8AXHiAAAAAXNSR0IArs4c6QAAEAJJREFUeF7tnWWs/bgRxc9WKjMztyptt8ywZUaVSWXmLTMzMzMzgwoqM8OWmZlZJf1WySrrv514nNi5992ZL+/DM56ca4/HM+P95OIIVEBgvwptepOOgJxYToIqCDixqsDqjTqxnANVEHBiVYHVG3ViOQeqIODEqgKrN+rEcg5UQcCJVQVWb9SJ5RyogoATqwqs3qgTyzlQBQEnVhVYvVEnlnOgCgJOrCqweqNOLOdAFQScWFVg9UadWM6BKgg4sarA6o06sZwDVRBwYlWB1Rt1YjkHqiDgxKoCqzfqxHIOVEGgJbFuLOkgSQdUmYk3GiLwXUlPl/TkNaBpRayrSHrLGhP0PnUjSS9vjUMrYn1Q0oGtJ+f9HYLAwZL2b41FK2L9SdLRW0/O+zsUgVbfuXmH//OPvCoCJ5H085YjaMVkJ1bLr7pvX6eS9MOWQ1iTWH+T9LiWk92Bvm4h6aSReZ5S0o9azn9NYv1G0vFbTnYH+vqUpPNG5rlTK5YTa3mmO7EkObGcWLMRiCnvTqzZsO7TgK9YvmItzypJTiwnlhNrCQR8K1wCxek2fMXyFWuaJQUlnFhOrALaTFdxYjmxpllSUMKJ5cQqoM10FSeWE2uaJQUlnFhOrALaTFdxYkn6laQTTmO10SWOKumvGzTCT0o6X2Q8p5D045bj3IveDafvfLzfJOmxkv5bAdAjSHqMpF90fyt0UdSkr1iVtsLbdz5eR+4+y8clXVvST4s+U7zSmSS9QRJ/7y7pCQu2PbcpJ9bCxDqBpFdKumTky+Bvf0NJb5v71STduVuhjti1dRdJT1mg3aWacGItSKwrS3qRpONOfB3K3EESnqtWOVG3vYbEpb1nWBurWN6JtQCxjibpqZJuavhQ35N0TUlfMNSBuC+VdKxIndtIeo6hrdpFnViSfi2JLaxELiDp1ZI47cTkPd3p6JiJ/z9Q0sMmOj6KpCdKunWi3Gsl3VzSX0omUKlO6lS4Uz7vpeaGR0i678iHgQjPlcT29TJJl0qU/aik6yYU+/NIepWk0ybq3lLS8yuRY06zn5B0/kgDJ+5OsHPaNtVd09xgJRZmBBT0cydm+PmOKN8O/n+PzuwQq/ZnSZDkNYN/QlrIG5MvSbqOpG+aUE4X5jDA+GKRNcNa75Z0W0k/mOiXA8qVImVafedDu27VYcwfy0Ks200oyY/vPlAK97N1W+cZEwXIbYBdCn3pgokyz5SEOWMpOZ2k8Ecw1jZ6HolVxuR+kh4eFPi6pDMvNejcdtYk1i+77WpsrFjmOc1dPlEI+xSmBHJDTMmROhsXJzmL/F7STSS91VIpoyxZYFixLIJOim6aEla+L0s6zqDAKifXTSbWRSRhPU+ZETBSso3x4S1yBUkvzoxp/Fi39S1pYO3HSjDJlIkknNedJD1tYrKshKzwxGy+UNIHLOAsVXZNYk1F6aB8f03SsYPJcgrjlw5opTJmUKVNroHYUh4q6T+lnYzUu1r3o7E2jR55LmulNcpvMrHA44qS3j4ABvsTdijsUUsIKwC6FdtkLyTP4BqIU2MNwf72xZET51SfN+gOMVPlVv3/phMLcJ7dbXmPlvQgSf9eGLHh3d87pEMSlVm3V8uQ+KHwgxlKSsFm22ZMQ/mnJMwhX7F02rrsmsTKPRVyoczyX2sF6TG/euH2ZPlmGFzvGqnQ295ibbE6nzr4B5ljrioJ88dGyprEmtKxNhKwwkFxLfSkxPaHLQ19MnWHec+Eaw56IIZgTAy/KxxXtWprEit3xao2+QUbxgrP9c4/ulWEIz8OgNjPzh45gAy7vl5nY0sNhxUb9x/aSQn9sZ1+v0sLSb8n71IX0T71m4oTaz7c5KR6XmEzHBzunVEXknAiPF5G2bAIphJMEJC+maxJrL2wFXKa5JqlxMUafQtHwdxsh2eQ9D5JJytgx71GrrUKmpuusiax5ng3TM+sTQmIYc1KyMqBHQ79yCroYnhVYDy2CDrYaST90VJpTtk1ibXtOhZZoEm/GPPTSn0TLom5YpmbtpHt9yGSSFqbK7gJ4S7URNYkVs5dYRMQCjvBKv+ASF28FZBzdinIf9LlWn+dJOa8pFxU0mU6cwTXQ1/tDg+QN0wZyamTlJFjd42LjW1NYm2zjsUlL6sO4V9D+UwiB+hiHyyzIXzQ3hspi38+fvrVZU1i1doKUai553tjxWN2yjPh4pmeFtU/bHf5fLFIR5wwWUWryprEqrEVnqO7R+v9rtiuuAZaUnr7UNgmKwTbUolgd7qEJMaNuzVKNo8s4RGKd0JJUCyepNQP5QWS0NGqyprEWnrFuo+kR0bQwg8cF+SlEuhD1AdH+sGz9XPGr8XH54WuMY+Fv0vinpQfiVVW8yjdC8TiF/4KSRceQZ1fPN6fL7F+mUh5SBWugiVemljqLX7zn5V0aUl/MMyBHxS++6FU/+7VO+hmFDMCLrEV4onAL/4YmWBzMsM5cI49B2PopyMRQteS9PrMcTBuXI2twqUzq1yOFR0/Nq56QoPq/Ud8+q3jSZZfk1hztkJAw8CIb1ZMaDsVWvazbmv8yAwULxTxtiCPAy44UysKRs7vRE6U/XDwOSNca+hePBwqgR6QY0rwkg195PEQsRpXp/qJ/n8bicVRmi0tZRwk4gY3FOw4bJGpZ1XQx/AMKJVYGBpkT8Uh9v0wPhwJh8LqjULNlU2/GuEqg4vNHSMDhMDfGBk4P6rQZoYdi6CKpXTNUdy2jVi4nqTsMLifoEcRS9gLv3q2nNCxrv8/yjbhXJzASgS9J1S8scinglgJCnln0BGHC16gTRkuCRYZzonqrLYYR1PC3SAK/1DQ6ea4c5vwWZNYFgPpWbvYP36pMcEwiY6T+jWiV0HK0KBJWyj2uCiXgH4zSRzfh4KCzcoTE54vhkS9QEDiJdlGxwSSQJahYJqIxTfyTbkYH0aJs1rF5m4ii6XwmsTK1bFSZoR+njnh8pTFdYQTUirgtcQDgLYg9VA4NXKPFxNWRi6De2Gb4/AxJfhksfUNyXKNzggc1kVZD5OssSqSlqCZrEmsKe8GYuQgQkrZ5EqF43TMCDgGIJexMeW35LqD/A6h8ZKo5VgcJCtGuEVSHztVjoSrVorAGInx3RoKZg1W7WayJrGmzA1EJBPXFxN0DvQp9KoS4VRHuP5wBSD7X7jd5LSNI93wIJG6LySFIytHL1yrYMXPlXDbxbTB9h9K7J7woE4VyO1rdrk1iTW1YjE5trnhthLLtVAKArYvQupZ9ZDcY3zYHysWK08vH5IUu6PDRRgy94LiT7RNrlxO0rsGhQkhY3UKhRxeoY6Hzxi+881kTWLl6licgLCqY4Mhpm6uL1MI7vW7EDPAn0ptFNbF3hQm6sAUQkh+KOGKhb0rDMYd+/Cs0EN97M2SiCwKJZYTYs49ZhEZ1yTW1FbYT4jtAkt17B6waNKRSmyJ2HjQjywSMx+wwsbuEglUDbduy+vy2MiGetLYBXu4PVtO4Jb5J8uuSazmk10EscM2wuGi30r7/7ANsh3GhCganO16yTXSYvD8lqRhIjmMrFxRxSQ2Lg5D3Do0ESdWOcyx0xd2tCFxwtZDbwPyQmCyQF8ak1j09Jj1Hes/EeRDYRuNWfHLERip6cQqhzWWPY8rorEtO6ZYc4ghSUgs9o/szBAk1NlI24RTYUrYdrmPDKOHuGUgGKO6rEmsXB2rOggFHcSic8j3gDWcQ8mYEIMYc7QjHAwdD5ME94SsZKwwYaAqehr64JQXKBZ+LP1D4QSLLz7balVxYtnhJRVjLGc8YfTDzDiplrlLPNhowxq2hT2LZHQ5wuoU2rroe/+cynPKrEmsXHPDnPnVqMtLFBgch4IJBNNDrmC/en8XxZNbh3K4wljSj++ko9+2EisVpIoeZPFQxSsCT4fclOTktLemlsTRjwv8ofBSRypNuYXko2V9xbJDiWKM2SDMo2BdteiZD4w9Cjtdylj64S79eOp6KzUDDL/4o4WSsrPZkRip4cQqgxM3m9gbOuT+fFZZk4dcz2BCwCDcR+mgyJfeh4aeFAzrt93BoLTN7KmtSaxtNpAevktXGfqTc9LFjpXjk579kQoK3irxFEuz18rWJNa26lj9d0aJjjkHcocH8TATkNcBswCh71jJSemd6yYzxSdezeDu9LIdmfGW5cRHwAUX1qHrNlb3qYcKpvrM/v+axNrmFQuAD9dldSa9UK5g6+KxAyKpS14hox+2TIywkMcirGKlebws/RxS1ollhuwwFfDizA35GlYkDvHAggQd2LBw2rN+Nw4buEDXSC0eRdA6wNLPMPfJk9J+W9SLBVTk9Au5cDjMzdBcGovIWJpd5fQTX5NYOY5+OR9o7TK4TmMSKBHsWKkIomF76GuWNxaHda0OhSXz2KfOmsRaZAKNGuExJRwNifSJ5VdnNcGNBV9zfKH6qBuSfXB9goKdMkoSO4jOlRJ85SEVW1lMUNZx0yHYgnESR0lQ7Fm6QwQX41P3iovD6MSyQYoZAYs5T7FYBGMqiWzRkWJC0rRUSu3QPbuvD3lJjGux9lvGPKusE8sOX27IVqzlVEI03kh8VGIo2MbCax9WKF6tKD1Z2mdtrNGKWCzXBxjHtqnFSeoWSxGZO17ci8PEtrzfwxVMKOhvYfoifOxZNTfu0YDh4FsRi9CqPjdn7gfY1HIk2ijJFDOcDxfKJd6cXMUQlMGJcqOlFbEItWL5HntdYaOB6ga3VI5RwsW4txu+OpYz/9wHB3LaqlqmFbH6SfCwEN6PuNxuk2BrYjvPeck1d17kSI2Fb43VZ7UiN9fGS2tibTwgDQeIeWL4yPlU11OBGlP1m/7fidUU7sN0xl0jtqeUfSocWdO7vrmwOLHmIjivPronK9fY+zg8/EnI/DDvw7xeG9R2YjUAeRe7cGLt4ldvMGcnVgOQd7ELJ9YufvUGc3ZiNQB5F7twYu3iV28wZydWA5B3sQsn1i5+9QZz3qvE4oVR3pwh3GmT5ojvPxHTeKM2i5hpwKN9utgk0JeYP5ZsQtGrZ1NZYLDN3rVZYKzmJvYasYjZu5sZhfUqTPm7rzeymT3vNWKRrtoayDkTwlnVrWmJZnXWsvJeIxZhWE2eTVvoI5FxjzSRe072GrGIEuaVq22RrfEItQK614iFhyVJZ7dhXv/qvGlLn7Szfuum5bfhA1gBIbKYVxwIFk09lmltc8nymBuITiZIdc4rr0uOafG29iKxFgfJG7Qj4MSyY+Y1MhBwYmWA5EXsCDix7Jh5jQwEnFgZIHkROwJOLDtmXiMDASdWBkhexI6AE8uOmdfIQMCJlQGSF7Ej4MSyY+Y1MhBwYmWA5EXsCDix7Jh5jQwEnFgZIHkROwJOLDtmXiMDASdWBkhexI6AE8uOmdfIQMCJlQGSF7Ej4MSyY+Y1MhBwYmWA5EXsCDix7Jh5jQwEnFgZIHkROwJOLDtmXiMDASdWBkhexI6AE8uOmdfIQMCJlQGSF7Ej8H8DWdW1/JxifgAAAABJRU5ErkJggg==;" vertex="1" parent="1">
          <mxGeometry x="430" y="240" width="50" height="50" as="geometry" />
        </mxCell>
        <mxCell id="jRnjlJVptEnsLb_HcwkW-9" value="王知之后台" style="text;html=1;strokeColor=none;fillColor=none;align=center;verticalAlign=middle;whiteSpace=wrap;rounded=0;" vertex="1" parent="1">
          <mxGeometry x="417.5" y="290" width="75" height="30" as="geometry" />
        </mxCell>
        <mxCell id="jRnjlJVptEnsLb_HcwkW-10" value="" style="shape=image;verticalLabelPosition=bottom;labelBackgroundColor=default;verticalAlign=top;aspect=fixed;imageAspect=0;image=data:image/png,iVBORw0KGgoAAAANSUhEUgAAAJYAAACWCAYAAAA8AXHiAAAAAXNSR0IArs4c6QAAEAJJREFUeF7tnWWs/bgRxc9WKjMztyptt8ywZUaVSWXmLTMzMzMzgwoqM8OWmZlZJf1WySrrv514nNi5992ZL+/DM56ca4/HM+P95OIIVEBgvwptepOOgJxYToIqCDixqsDqjTqxnANVEHBiVYHVG3ViOQeqIODEqgKrN+rEcg5UQcCJVQVWb9SJ5RyogoATqwqs3qgTyzlQBQEnVhVYvVEnlnOgCgJOrCqweqNOLOdAFQScWFVg9UadWM6BKgg4sarA6o06sZwDVRBwYlWB1Rt1YjkHqiDgxKoCqzfqxHIOVEGgJbFuLOkgSQdUmYk3GiLwXUlPl/TkNaBpRayrSHrLGhP0PnUjSS9vjUMrYn1Q0oGtJ+f9HYLAwZL2b41FK2L9SdLRW0/O+zsUgVbfuXmH//OPvCoCJ5H085YjaMVkJ1bLr7pvX6eS9MOWQ1iTWH+T9LiWk92Bvm4h6aSReZ5S0o9azn9NYv1G0vFbTnYH+vqUpPNG5rlTK5YTa3mmO7EkObGcWLMRiCnvTqzZsO7TgK9YvmItzypJTiwnlhNrCQR8K1wCxek2fMXyFWuaJQUlnFhOrALaTFdxYjmxpllSUMKJ5cQqoM10FSeWE2uaJQUlnFhOrALaTFdxYkn6laQTTmO10SWOKumvGzTCT0o6X2Q8p5D045bj3IveDafvfLzfJOmxkv5bAdAjSHqMpF90fyt0UdSkr1iVtsLbdz5eR+4+y8clXVvST4s+U7zSmSS9QRJ/7y7pCQu2PbcpJ9bCxDqBpFdKumTky+Bvf0NJb5v71STduVuhjti1dRdJT1mg3aWacGItSKwrS3qRpONOfB3K3EESnqtWOVG3vYbEpb1nWBurWN6JtQCxjibpqZJuavhQ35N0TUlfMNSBuC+VdKxIndtIeo6hrdpFnViSfi2JLaxELiDp1ZI47cTkPd3p6JiJ/z9Q0sMmOj6KpCdKunWi3Gsl3VzSX0omUKlO6lS4Uz7vpeaGR0i678iHgQjPlcT29TJJl0qU/aik6yYU+/NIepWk0ybq3lLS8yuRY06zn5B0/kgDJ+5OsHPaNtVd09xgJRZmBBT0cydm+PmOKN8O/n+PzuwQq/ZnSZDkNYN/QlrIG5MvSbqOpG+aUE4X5jDA+GKRNcNa75Z0W0k/mOiXA8qVImVafedDu27VYcwfy0Ks200oyY/vPlAK97N1W+cZEwXIbYBdCn3pgokyz5SEOWMpOZ2k8Ecw1jZ6HolVxuR+kh4eFPi6pDMvNejcdtYk1i+77WpsrFjmOc1dPlEI+xSmBHJDTMmROhsXJzmL/F7STSS91VIpoyxZYFixLIJOim6aEla+L0s6zqDAKifXTSbWRSRhPU+ZETBSso3x4S1yBUkvzoxp/Fi39S1pYO3HSjDJlIkknNedJD1tYrKshKzwxGy+UNIHLOAsVXZNYk1F6aB8f03SsYPJcgrjlw5opTJmUKVNroHYUh4q6T+lnYzUu1r3o7E2jR55LmulNcpvMrHA44qS3j4ABvsTdijsUUsIKwC6FdtkLyTP4BqIU2MNwf72xZET51SfN+gOMVPlVv3/phMLcJ7dbXmPlvQgSf9eGLHh3d87pEMSlVm3V8uQ+KHwgxlKSsFm22ZMQ/mnJMwhX7F02rrsmsTKPRVyoczyX2sF6TG/euH2ZPlmGFzvGqnQ295ibbE6nzr4B5ljrioJ88dGyprEmtKxNhKwwkFxLfSkxPaHLQ19MnWHec+Eaw56IIZgTAy/KxxXtWprEit3xao2+QUbxgrP9c4/ulWEIz8OgNjPzh45gAy7vl5nY0sNhxUb9x/aSQn9sZ1+v0sLSb8n71IX0T71m4oTaz7c5KR6XmEzHBzunVEXknAiPF5G2bAIphJMEJC+maxJrL2wFXKa5JqlxMUafQtHwdxsh2eQ9D5JJytgx71GrrUKmpuusiax5ng3TM+sTQmIYc1KyMqBHQ79yCroYnhVYDy2CDrYaST90VJpTtk1ibXtOhZZoEm/GPPTSn0TLom5YpmbtpHt9yGSSFqbK7gJ4S7URNYkVs5dYRMQCjvBKv+ASF28FZBzdinIf9LlWn+dJOa8pFxU0mU6cwTXQ1/tDg+QN0wZyamTlJFjd42LjW1NYm2zjsUlL6sO4V9D+UwiB+hiHyyzIXzQ3hspi38+fvrVZU1i1doKUai553tjxWN2yjPh4pmeFtU/bHf5fLFIR5wwWUWryprEqrEVnqO7R+v9rtiuuAZaUnr7UNgmKwTbUolgd7qEJMaNuzVKNo8s4RGKd0JJUCyepNQP5QWS0NGqyprEWnrFuo+kR0bQwg8cF+SlEuhD1AdH+sGz9XPGr8XH54WuMY+Fv0vinpQfiVVW8yjdC8TiF/4KSRceQZ1fPN6fL7F+mUh5SBWugiVemljqLX7zn5V0aUl/MMyBHxS++6FU/+7VO+hmFDMCLrEV4onAL/4YmWBzMsM5cI49B2PopyMRQteS9PrMcTBuXI2twqUzq1yOFR0/Nq56QoPq/Ud8+q3jSZZfk1hztkJAw8CIb1ZMaDsVWvazbmv8yAwULxTxtiCPAy44UysKRs7vRE6U/XDwOSNca+hePBwqgR6QY0rwkg195PEQsRpXp/qJ/n8bicVRmi0tZRwk4gY3FOw4bJGpZ1XQx/AMKJVYGBpkT8Uh9v0wPhwJh8LqjULNlU2/GuEqg4vNHSMDhMDfGBk4P6rQZoYdi6CKpXTNUdy2jVi4nqTsMLifoEcRS9gLv3q2nNCxrv8/yjbhXJzASgS9J1S8scinglgJCnln0BGHC16gTRkuCRYZzonqrLYYR1PC3SAK/1DQ6ea4c5vwWZNYFgPpWbvYP36pMcEwiY6T+jWiV0HK0KBJWyj2uCiXgH4zSRzfh4KCzcoTE54vhkS9QEDiJdlGxwSSQJahYJqIxTfyTbkYH0aJs1rF5m4ii6XwmsTK1bFSZoR+njnh8pTFdYQTUirgtcQDgLYg9VA4NXKPFxNWRi6De2Gb4/AxJfhksfUNyXKNzggc1kVZD5OssSqSlqCZrEmsKe8GYuQgQkrZ5EqF43TMCDgGIJexMeW35LqD/A6h8ZKo5VgcJCtGuEVSHztVjoSrVorAGInx3RoKZg1W7WayJrGmzA1EJBPXFxN0DvQp9KoS4VRHuP5wBSD7X7jd5LSNI93wIJG6LySFIytHL1yrYMXPlXDbxbTB9h9K7J7woE4VyO1rdrk1iTW1YjE5trnhthLLtVAKArYvQupZ9ZDcY3zYHysWK08vH5IUu6PDRRgy94LiT7RNrlxO0rsGhQkhY3UKhRxeoY6Hzxi+881kTWLl6licgLCqY4Mhpm6uL1MI7vW7EDPAn0ptFNbF3hQm6sAUQkh+KOGKhb0rDMYd+/Cs0EN97M2SiCwKJZYTYs49ZhEZ1yTW1FbYT4jtAkt17B6waNKRSmyJ2HjQjywSMx+wwsbuEglUDbduy+vy2MiGetLYBXu4PVtO4Jb5J8uuSazmk10EscM2wuGi30r7/7ANsh3GhCganO16yTXSYvD8lqRhIjmMrFxRxSQ2Lg5D3Do0ESdWOcyx0xd2tCFxwtZDbwPyQmCyQF8ak1j09Jj1Hes/EeRDYRuNWfHLERip6cQqhzWWPY8rorEtO6ZYc4ghSUgs9o/szBAk1NlI24RTYUrYdrmPDKOHuGUgGKO6rEmsXB2rOggFHcSic8j3gDWcQ8mYEIMYc7QjHAwdD5ME94SsZKwwYaAqehr64JQXKBZ+LP1D4QSLLz7balVxYtnhJRVjLGc8YfTDzDiplrlLPNhowxq2hT2LZHQ5wuoU2rroe/+cynPKrEmsXHPDnPnVqMtLFBgch4IJBNNDrmC/en8XxZNbh3K4wljSj++ko9+2EisVpIoeZPFQxSsCT4fclOTktLemlsTRjwv8ofBSRypNuYXko2V9xbJDiWKM2SDMo2BdteiZD4w9Cjtdylj64S79eOp6KzUDDL/4o4WSsrPZkRip4cQqgxM3m9gbOuT+fFZZk4dcz2BCwCDcR+mgyJfeh4aeFAzrt93BoLTN7KmtSaxtNpAevktXGfqTc9LFjpXjk579kQoK3irxFEuz18rWJNa26lj9d0aJjjkHcocH8TATkNcBswCh71jJSemd6yYzxSdezeDu9LIdmfGW5cRHwAUX1qHrNlb3qYcKpvrM/v+axNrmFQuAD9dldSa9UK5g6+KxAyKpS14hox+2TIywkMcirGKlebws/RxS1ollhuwwFfDizA35GlYkDvHAggQd2LBw2rN+Nw4buEDXSC0eRdA6wNLPMPfJk9J+W9SLBVTk9Au5cDjMzdBcGovIWJpd5fQTX5NYOY5+OR9o7TK4TmMSKBHsWKkIomF76GuWNxaHda0OhSXz2KfOmsRaZAKNGuExJRwNifSJ5VdnNcGNBV9zfKH6qBuSfXB9goKdMkoSO4jOlRJ85SEVW1lMUNZx0yHYgnESR0lQ7Fm6QwQX41P3iovD6MSyQYoZAYs5T7FYBGMqiWzRkWJC0rRUSu3QPbuvD3lJjGux9lvGPKusE8sOX27IVqzlVEI03kh8VGIo2MbCax9WKF6tKD1Z2mdtrNGKWCzXBxjHtqnFSeoWSxGZO17ci8PEtrzfwxVMKOhvYfoifOxZNTfu0YDh4FsRi9CqPjdn7gfY1HIk2ijJFDOcDxfKJd6cXMUQlMGJcqOlFbEItWL5HntdYaOB6ga3VI5RwsW4txu+OpYz/9wHB3LaqlqmFbH6SfCwEN6PuNxuk2BrYjvPeck1d17kSI2Fb43VZ7UiN9fGS2tibTwgDQeIeWL4yPlU11OBGlP1m/7fidUU7sN0xl0jtqeUfSocWdO7vrmwOLHmIjivPronK9fY+zg8/EnI/DDvw7xeG9R2YjUAeRe7cGLt4ldvMGcnVgOQd7ELJ9YufvUGc3ZiNQB5F7twYu3iV28wZydWA5B3sQsn1i5+9QZz3qvE4oVR3pwh3GmT5ojvPxHTeKM2i5hpwKN9utgk0JeYP5ZsQtGrZ1NZYLDN3rVZYKzmJvYasYjZu5sZhfUqTPm7rzeymT3vNWKRrtoayDkTwlnVrWmJZnXWsvJeIxZhWE2eTVvoI5FxjzSRe072GrGIEuaVq22RrfEItQK614iFhyVJZ7dhXv/qvGlLn7Szfuum5bfhA1gBIbKYVxwIFk09lmltc8nymBuITiZIdc4rr0uOafG29iKxFgfJG7Qj4MSyY+Y1MhBwYmWA5EXsCDix7Jh5jQwEnFgZIHkROwJOLDtmXiMDASdWBkhexI6AE8uOmdfIQMCJlQGSF7Ej4MSyY+Y1MhBwYmWA5EXsCDix7Jh5jQwEnFgZIHkROwJOLDtmXiMDASdWBkhexI6AE8uOmdfIQMCJlQGSF7Ej4MSyY+Y1MhBwYmWA5EXsCDix7Jh5jQwEnFgZIHkROwJOLDtmXiMDASdWBkhexI6AE8uOmdfIQMCJlQGSF7Ej8H8DWdW1/JxifgAAAABJRU5ErkJggg==;" vertex="1" parent="1">
          <mxGeometry x="522.5" y="240" width="50" height="50" as="geometry" />
        </mxCell>
        <mxCell id="jRnjlJVptEnsLb_HcwkW-11" value="LM后台" style="text;html=1;strokeColor=none;fillColor=none;align=center;verticalAlign=middle;whiteSpace=wrap;rounded=0;" vertex="1" parent="1">
          <mxGeometry x="510" y="290" width="75" height="30" as="geometry" />
        </mxCell>
        <mxCell id="jRnjlJVptEnsLb_HcwkW-12" value="" style="shape=image;verticalLabelPosition=bottom;labelBackgroundColor=default;verticalAlign=top;aspect=fixed;imageAspect=0;image=data:image/png,iVBORw0KGgoAAAANSUhEUgAAAJYAAACWCAYAAAA8AXHiAAAAAXNSR0IArs4c6QAAEAJJREFUeF7tnWWs/bgRxc9WKjMztyptt8ywZUaVSWXmLTMzMzMzgwoqM8OWmZlZJf1WySrrv514nNi5992ZL+/DM56ca4/HM+P95OIIVEBgvwptepOOgJxYToIqCDixqsDqjTqxnANVEHBiVYHVG3ViOQeqIODEqgKrN+rEcg5UQcCJVQVWb9SJ5RyogoATqwqs3qgTyzlQBQEnVhVYvVEnlnOgCgJOrCqweqNOLOdAFQScWFVg9UadWM6BKgg4sarA6o06sZwDVRBwYlWB1Rt1YjkHqiDgxKoCqzfqxHIOVEGgJbFuLOkgSQdUmYk3GiLwXUlPl/TkNaBpRayrSHrLGhP0PnUjSS9vjUMrYn1Q0oGtJ+f9HYLAwZL2b41FK2L9SdLRW0/O+zsUgVbfuXmH//OPvCoCJ5H085YjaMVkJ1bLr7pvX6eS9MOWQ1iTWH+T9LiWk92Bvm4h6aSReZ5S0o9azn9NYv1G0vFbTnYH+vqUpPNG5rlTK5YTa3mmO7EkObGcWLMRiCnvTqzZsO7TgK9YvmItzypJTiwnlhNrCQR8K1wCxek2fMXyFWuaJQUlnFhOrALaTFdxYjmxpllSUMKJ5cQqoM10FSeWE2uaJQUlnFhOrALaTFdxYkn6laQTTmO10SWOKumvGzTCT0o6X2Q8p5D045bj3IveDafvfLzfJOmxkv5bAdAjSHqMpF90fyt0UdSkr1iVtsLbdz5eR+4+y8clXVvST4s+U7zSmSS9QRJ/7y7pCQu2PbcpJ9bCxDqBpFdKumTky+Bvf0NJb5v71STduVuhjti1dRdJT1mg3aWacGItSKwrS3qRpONOfB3K3EESnqtWOVG3vYbEpb1nWBurWN6JtQCxjibpqZJuavhQ35N0TUlfMNSBuC+VdKxIndtIeo6hrdpFnViSfi2JLaxELiDp1ZI47cTkPd3p6JiJ/z9Q0sMmOj6KpCdKunWi3Gsl3VzSX0omUKlO6lS4Uz7vpeaGR0i678iHgQjPlcT29TJJl0qU/aik6yYU+/NIepWk0ybq3lLS8yuRY06zn5B0/kgDJ+5OsHPaNtVd09xgJRZmBBT0cydm+PmOKN8O/n+PzuwQq/ZnSZDkNYN/QlrIG5MvSbqOpG+aUE4X5jDA+GKRNcNa75Z0W0k/mOiXA8qVImVafedDu27VYcwfy0Ks200oyY/vPlAK97N1W+cZEwXIbYBdCn3pgokyz5SEOWMpOZ2k8Ecw1jZ6HolVxuR+kh4eFPi6pDMvNejcdtYk1i+77WpsrFjmOc1dPlEI+xSmBHJDTMmROhsXJzmL/F7STSS91VIpoyxZYFixLIJOim6aEla+L0s6zqDAKifXTSbWRSRhPU+ZETBSso3x4S1yBUkvzoxp/Fi39S1pYO3HSjDJlIkknNedJD1tYrKshKzwxGy+UNIHLOAsVXZNYk1F6aB8f03SsYPJcgrjlw5opTJmUKVNroHYUh4q6T+lnYzUu1r3o7E2jR55LmulNcpvMrHA44qS3j4ABvsTdijsUUsIKwC6FdtkLyTP4BqIU2MNwf72xZET51SfN+gOMVPlVv3/phMLcJ7dbXmPlvQgSf9eGLHh3d87pEMSlVm3V8uQ+KHwgxlKSsFm22ZMQ/mnJMwhX7F02rrsmsTKPRVyoczyX2sF6TG/euH2ZPlmGFzvGqnQ295ibbE6nzr4B5ljrioJ88dGyprEmtKxNhKwwkFxLfSkxPaHLQ19MnWHec+Eaw56IIZgTAy/KxxXtWprEit3xao2+QUbxgrP9c4/ulWEIz8OgNjPzh45gAy7vl5nY0sNhxUb9x/aSQn9sZ1+v0sLSb8n71IX0T71m4oTaz7c5KR6XmEzHBzunVEXknAiPF5G2bAIphJMEJC+maxJrL2wFXKa5JqlxMUafQtHwdxsh2eQ9D5JJytgx71GrrUKmpuusiax5ng3TM+sTQmIYc1KyMqBHQ79yCroYnhVYDy2CDrYaST90VJpTtk1ibXtOhZZoEm/GPPTSn0TLom5YpmbtpHt9yGSSFqbK7gJ4S7URNYkVs5dYRMQCjvBKv+ASF28FZBzdinIf9LlWn+dJOa8pFxU0mU6cwTXQ1/tDg+QN0wZyamTlJFjd42LjW1NYm2zjsUlL6sO4V9D+UwiB+hiHyyzIXzQ3hspi38+fvrVZU1i1doKUai553tjxWN2yjPh4pmeFtU/bHf5fLFIR5wwWUWryprEqrEVnqO7R+v9rtiuuAZaUnr7UNgmKwTbUolgd7qEJMaNuzVKNo8s4RGKd0JJUCyepNQP5QWS0NGqyprEWnrFuo+kR0bQwg8cF+SlEuhD1AdH+sGz9XPGr8XH54WuMY+Fv0vinpQfiVVW8yjdC8TiF/4KSRceQZ1fPN6fL7F+mUh5SBWugiVemljqLX7zn5V0aUl/MMyBHxS++6FU/+7VO+hmFDMCLrEV4onAL/4YmWBzMsM5cI49B2PopyMRQteS9PrMcTBuXI2twqUzq1yOFR0/Nq56QoPq/Ud8+q3jSZZfk1hztkJAw8CIb1ZMaDsVWvazbmv8yAwULxTxtiCPAy44UysKRs7vRE6U/XDwOSNca+hePBwqgR6QY0rwkg195PEQsRpXp/qJ/n8bicVRmi0tZRwk4gY3FOw4bJGpZ1XQx/AMKJVYGBpkT8Uh9v0wPhwJh8LqjULNlU2/GuEqg4vNHSMDhMDfGBk4P6rQZoYdi6CKpXTNUdy2jVi4nqTsMLifoEcRS9gLv3q2nNCxrv8/yjbhXJzASgS9J1S8scinglgJCnln0BGHC16gTRkuCRYZzonqrLYYR1PC3SAK/1DQ6ea4c5vwWZNYFgPpWbvYP36pMcEwiY6T+jWiV0HK0KBJWyj2uCiXgH4zSRzfh4KCzcoTE54vhkS9QEDiJdlGxwSSQJahYJqIxTfyTbkYH0aJs1rF5m4ii6XwmsTK1bFSZoR+njnh8pTFdYQTUirgtcQDgLYg9VA4NXKPFxNWRi6De2Gb4/AxJfhksfUNyXKNzggc1kVZD5OssSqSlqCZrEmsKe8GYuQgQkrZ5EqF43TMCDgGIJexMeW35LqD/A6h8ZKo5VgcJCtGuEVSHztVjoSrVorAGInx3RoKZg1W7WayJrGmzA1EJBPXFxN0DvQp9KoS4VRHuP5wBSD7X7jd5LSNI93wIJG6LySFIytHL1yrYMXPlXDbxbTB9h9K7J7woE4VyO1rdrk1iTW1YjE5trnhthLLtVAKArYvQupZ9ZDcY3zYHysWK08vH5IUu6PDRRgy94LiT7RNrlxO0rsGhQkhY3UKhRxeoY6Hzxi+881kTWLl6licgLCqY4Mhpm6uL1MI7vW7EDPAn0ptFNbF3hQm6sAUQkh+KOGKhb0rDMYd+/Cs0EN97M2SiCwKJZYTYs49ZhEZ1yTW1FbYT4jtAkt17B6waNKRSmyJ2HjQjywSMx+wwsbuEglUDbduy+vy2MiGetLYBXu4PVtO4Jb5J8uuSazmk10EscM2wuGi30r7/7ANsh3GhCganO16yTXSYvD8lqRhIjmMrFxRxSQ2Lg5D3Do0ESdWOcyx0xd2tCFxwtZDbwPyQmCyQF8ak1j09Jj1Hes/EeRDYRuNWfHLERip6cQqhzWWPY8rorEtO6ZYc4ghSUgs9o/szBAk1NlI24RTYUrYdrmPDKOHuGUgGKO6rEmsXB2rOggFHcSic8j3gDWcQ8mYEIMYc7QjHAwdD5ME94SsZKwwYaAqehr64JQXKBZ+LP1D4QSLLz7balVxYtnhJRVjLGc8YfTDzDiplrlLPNhowxq2hT2LZHQ5wuoU2rroe/+cynPKrEmsXHPDnPnVqMtLFBgch4IJBNNDrmC/en8XxZNbh3K4wljSj++ko9+2EisVpIoeZPFQxSsCT4fclOTktLemlsTRjwv8ofBSRypNuYXko2V9xbJDiWKM2SDMo2BdteiZD4w9Cjtdylj64S79eOp6KzUDDL/4o4WSsrPZkRip4cQqgxM3m9gbOuT+fFZZk4dcz2BCwCDcR+mgyJfeh4aeFAzrt93BoLTN7KmtSaxtNpAevktXGfqTc9LFjpXjk579kQoK3irxFEuz18rWJNa26lj9d0aJjjkHcocH8TATkNcBswCh71jJSemd6yYzxSdezeDu9LIdmfGW5cRHwAUX1qHrNlb3qYcKpvrM/v+axNrmFQuAD9dldSa9UK5g6+KxAyKpS14hox+2TIywkMcirGKlebws/RxS1ollhuwwFfDizA35GlYkDvHAggQd2LBw2rN+Nw4buEDXSC0eRdA6wNLPMPfJk9J+W9SLBVTk9Au5cDjMzdBcGovIWJpd5fQTX5NYOY5+OR9o7TK4TmMSKBHsWKkIomF76GuWNxaHda0OhSXz2KfOmsRaZAKNGuExJRwNifSJ5VdnNcGNBV9zfKH6qBuSfXB9goKdMkoSO4jOlRJ85SEVW1lMUNZx0yHYgnESR0lQ7Fm6QwQX41P3iovD6MSyQYoZAYs5T7FYBGMqiWzRkWJC0rRUSu3QPbuvD3lJjGux9lvGPKusE8sOX27IVqzlVEI03kh8VGIo2MbCax9WKF6tKD1Z2mdtrNGKWCzXBxjHtqnFSeoWSxGZO17ci8PEtrzfwxVMKOhvYfoifOxZNTfu0YDh4FsRi9CqPjdn7gfY1HIk2ijJFDOcDxfKJd6cXMUQlMGJcqOlFbEItWL5HntdYaOB6ga3VI5RwsW4txu+OpYz/9wHB3LaqlqmFbH6SfCwEN6PuNxuk2BrYjvPeck1d17kSI2Fb43VZ7UiN9fGS2tibTwgDQeIeWL4yPlU11OBGlP1m/7fidUU7sN0xl0jtqeUfSocWdO7vrmwOLHmIjivPronK9fY+zg8/EnI/DDvw7xeG9R2YjUAeRe7cGLt4ldvMGcnVgOQd7ELJ9YufvUGc3ZiNQB5F7twYu3iV28wZydWA5B3sQsn1i5+9QZz3qvE4oVR3pwh3GmT5ojvPxHTeKM2i5hpwKN9utgk0JeYP5ZsQtGrZ1NZYLDN3rVZYKzmJvYasYjZu5sZhfUqTPm7rzeymT3vNWKRrtoayDkTwlnVrWmJZnXWsvJeIxZhWE2eTVvoI5FxjzSRe072GrGIEuaVq22RrfEItQK614iFhyVJZ7dhXv/qvGlLn7Szfuum5bfhA1gBIbKYVxwIFk09lmltc8nymBuITiZIdc4rr0uOafG29iKxFgfJG7Qj4MSyY+Y1MhBwYmWA5EXsCDix7Jh5jQwEnFgZIHkROwJOLDtmXiMDASdWBkhexI6AE8uOmdfIQMCJlQGSF7Ej4MSyY+Y1MhBwYmWA5EXsCDix7Jh5jQwEnFgZIHkROwJOLDtmXiMDASdWBkhexI6AE8uOmdfIQMCJlQGSF7Ej4MSyY+Y1MhBwYmWA5EXsCDix7Jh5jQwEnFgZIHkROwJOLDtmXiMDASdWBkhexI6AE8uOmdfIQMCJlQGSF7Ej8H8DWdW1/JxifgAAAABJRU5ErkJggg==;" vertex="1" parent="1">
          <mxGeometry x="612.5" y="240" width="50" height="50" as="geometry" />
        </mxCell>
        <mxCell id="jRnjlJVptEnsLb_HcwkW-13" value="其它" style="text;html=1;strokeColor=none;fillColor=none;align=center;verticalAlign=middle;whiteSpace=wrap;rounded=0;" vertex="1" parent="1">
          <mxGeometry x="600" y="290" width="75" height="30" as="geometry" />
        </mxCell>
        <mxCell id="jRnjlJVptEnsLb_HcwkW-15" value="" style="shape=image;verticalLabelPosition=bottom;labelBackgroundColor=default;verticalAlign=top;aspect=fixed;imageAspect=0;image=data:image/png,iVBORw0KGgoAAAANSUhEUgAAAH0AAAB9CAYAAACPgGwlAAAAAXNSR0IArs4c6QAAGPtJREFUeF7tXQuYHFWV/k/1zBDyQFyE8AgMYAJugCRTt3ryQCUEFyVEQXn4RIhPBB+AAvqtLgTdVVAEFVFUVkFERBBxiQkEFlQgyXTd6mSEKEHYJGCA5SHLI5DMdJ39zq2qmZqZnumq7kxNk+77fcnMdN/XOf89t84995xThGZpOA5Qw1HcJBhN0BtwETRBb4LegBxoQJKbkt4EvQE50IAkNyW9CXoDcqABSW5KehP0BuRAA5LclPQm6A3IgQYkuSnpTdAbkAMNSHJT0pugNyAHGpDkpqQ3QW9ADjQgyU1Jb4LegBxoQJKbkt4EvQE50IAkNyW9CXoDcqABSX7NS/ph3fz6cSW0g/EGLmE8gAkAxjNjAizz93jI74TxJD/lb/ncRxssvAxgC3xsMT+BLUzhZ8HvW1DCFmrFy+zjFQBP9D6DTd1vJ2n3mi11D/rsP/PkUgntvBXtILQToR1AO1vYD2w+28Vwn1P48Mep5hTYERhSn/AMAZuY8RgxNgLYRBY2ooTHLB+bVs+hp1L0mnnVugI938X7lnJwiJEnRicDDixMGgKqzHooyD0QKeVQagkvk48tfijBRpJDySY20twzYDfwg13Akp1AdgrZDaKdIdw9yqAzcMnIopA1wfgHGCsArCjlsKpo07rMkR1hwDEHXbm8FzM+QRbeA+DQPjCHAvs8gA0QybKwgf3gJ23DxlcZGx6ci+expAylFwRAJC5LyuwYFwStZ3Sh3bLQ3pLDfgy0w0c7+9ifZNeRv4G22DjBuAQmwl/Yx0omrHjhKdz6t4W0NfF8RqHimIKuVvOp1IqvsY99DHuCbfpZEP4MoJt9FKiEdQbUOyCgA3EQTQtKB+r2YCLzQL7JQrkAmLkSe1EL2q0cbGLMAzAXwP7hkNEieASMn2iHLt4eU6mmjzED3SnwzUx4dwi2rPzLexm/WrsUawcCOwagVsPJeJtoUSwBzTgW01sJc5hwDLHZzYKlDazQDr291qGqaT8moKsCXwrC2SHg9/glnFvshAa9BgFOwvVwEcx0kW8h/CeAQ2TbZ+CTnqIfJ+lie9bJHHRbsyJGIQT8Qa1w2A4LdjmkLmRLLcLNAI4XiWdC3lOktyeolfrKHHSnwD9kwicBPNXbgqPWzqIHK01yh/uemZSL20BYSIyr3DydniWNmYKe7+I9fQubjfZFuNxTJFt8QxZb8weJcZ1Iu78VBxQPJznvZ1IyBd3W/A5iLBPKfAvzijatzITKehxEpF3jMQD7sI9TvE6SBZBJyRR05fIXAXwdwN+1Q1MyobCOB1Eu/wbAu4nxIzdP8sjLpGQNuiGSCTd4it6fCYWDBpl+N0/ceRImWz4ml3y8xG14omjT02MxF+Xy+QC+AeAv2qHpWc0hW9AL/CQIkwGcqR26crSJ7PB4OpVwEll4G4DJxJjMwMQhNjdGiYAnYeEJLmE1CDdqh+4d7fmplTwbrVgl45R6cMCaubRhtMeU/jMDXbn8RgB/k0G5FzO9OdQ9GgQql99EjHchh3cxY25o1k1Dp1j1mRgbGPgN5XCH20FiRx+Volz+B4BdAZymHbpmVAYZ1GkaZtQ0H6fAxzHhtwBe1Q7tXFNnZRqLDR/AOSCcMyzQjBII68FYzxbWA9iNgGlgHAxgjzLdRqbT+xj4tqfollGY9+0AjgZwqXboC9u7/3L9ZQa6cvkzAL4LYL12SJi83Ypy+YwQ7AMH717MWMY5XMvboNfMxiPmUiZuvw8vWA45GrvuZOEgtGIRMd4HQHameJEFcD0TLvHU9tullMs/A3AqgF9ohz603ZgyQkdZgv4tAJ9nxp1env5lexGnXJZ+z4mDzYzlRFjWsxU3dM9DoKQlNfGKjWwJyDkOR/k+Tgjt5buH8xXgNxPjc26exKpWc1Euy2nmi0S4y1UkuseolyxBvxHASQCu1g59rGbKmC2ljR37wzHAr/dLuKLYGShHiYEuOxk2t+OHFjCljfAZInwaQPRYkmf+l908/UetdCiXPwvgOwAe1A4dWmt/SdpnCboAMVs2V+3QRUkmN1ydDo93txj3g80WLDR4xPiK62DZSEDPvZ933mphGlrxRguY6gNPWxYe5hIe1Q49MeycmGnW/ZhptRmJfG9M6q/SDn2qFlrsLj6ZLPwKjOd0nnarpa+kbbMEXZi6J/tY7HWSPMeqKrbmOQTcB4YlHbCP5b0+Pt49B38vd7dur+FF1IsTQOgEYxoIuQFeN6G3CxhPEeFh+Fjq9+A33jwyJ40BhZlsD98lNlJvhgfj9zpPi6oiBoCt+S3E+KO0f2Ucdlp3KG2rtq+k7TIBffoD3Lbzq4i8RRZoh+5OOsF4PaOhEx6PAAdw7aQX8dF7jqTeeL2OVTzdasF7CHgPA7PC75LSKh4SW+W4Zvm4udBJYlDqL2I+LeLL8BHsVoHf3Ne0Q/9WDU225qnEeDhs264d2lRNP2naJGVEmj6H1B1E2FTt0CPVdOi4vImBfUNmf0vbOG/wdu4U+Ey28N0yx7ZnATzMjL8RYR2Ld04Ju5OF6ezjELLwzzEvl0CKg//vZAtneCom+YHEf0zMp30SD7y1GoPOjLU8obUHL4X9zNEOra6GN2naZAJ6RxcfZVm4M5xYm3aoJ80kpa5T4N8x4Z2mnYVrdAcWDwZ8kHNGMISP233CL4pL8Qvzd3RcC3zw+ssSkFqEI0Jl80QAgcYebP/PWMCHC4qW9zUQ4F2cRYRvm2qMF7dtw9Tuw+l/09KmXP4/ALsQ43g3T7embZ+2fiag25oXExtNe7N2SPzhUhXlspymvxJK74aeEhZ0z6b/iTqZvZan9PbCE9/3SJNnwk8BXOfZCB4lKY5sh67GHm2tOJGAS8HYKZJmYnzWzdMVceCVi1tAOC787Hrt0AdTEQdAufxXAAcT4XRX0VVp26etnw3oBb6QjOsgVmmHxFkwcXE8PoZ9LO0D08dHvE4SQE0JNfknY895kbpTXQc/D4zMVbpgBVefCwGI0imLSYoc1U5283RTNL5T4A4m/HdoSmVmLPHyVM4vd1ialcuyMOeHbS9MzJwqK2YCulPgS5hwLjGWu3k6Js1cnQJfxYRPmDZltnXlsnjO9p1vSz461uSxtsyz/gQmvBXAVAKmMjAVhIfgYz1ZeJQZKye9iFsGKoVMB9+LiRPHYQ0AsfYZ4OUOPH7Eswt8drTNi97Qtg0zV84jiYhJVFSBl4ZeNN9083ReokY1VMoEdOXy9wGcwYSbPUXyvExUlMsiYeJRIgEIT/eUMDu+rTuaL2PGWVFnWiEHIj/6e/7d3PLSRJzDwdm6w3wePMv76Y6iVoKv1jNwi1/CDcXZtLZvkoFfmwB/WPjZA9qh6Hfj6WYXsJQsmAVNjI+5ebo6EZHB9h4Zrq7UDp2ZtF219bIBXfNPwThNjljaIbEzJyrKZbHcGW9RJlzlqX5fMlXkY1GCMEsWBJDDabqj/5ZKFozoEUyQM/RgOp8B8IDxSo0Utv4ZiSSL6fZs7dD10cfTb+S2nQ/sO3YKsAN82+wuXkyW0Vuk3K0dWpCISAE94g/hZ1rR4qTtqq2XDejRSmb8UOeTW7CUy+JONcdITw5Hx684zbO8hCtBkJ3jJq1wcrSlyxHRkmAJYFwk1ewbN61fk4WV+jasN1r8EtCsd+CNloU3i9YeSWrITAH/C9oho51L6fD4KMs3p5DVxPi+m6ef9zE+0AEeNcc+AlvAwgHa/ggIRTuhzE87dHK1YCZtlw3o4TMrzfVhqCB5ISGPaAfThihlAaO/rhW+FAE+Yy3v0dqLJ2KK3Sr04Cw9B12mr3JafOiXrlahE63mJrCzD/gc3qk7SBRJs990uLjQAn6oFZ4ccmR0WbxgxBtGdoLr3DydkgSISOcJrXvHJmlTS51sQA+1UwAXaYfCyLCRp61clsuMLwWsxr97ir5ctoUAFgPScfkhBg4K694GYLF2SLbzZCV4fstZOTKtck8r9uyeGZ6/B40X79QsuB5EEauyU7xeOyRn8BGL3X+6uUc7dGSl+rV+nwnodoG7iEwk6vluni5JMmnlsjxPjR8d92KuN4eCm7MRinJZbqvk1kpKd66EBV2zSSxx6UpgcfseMYxSRYz73TwdnqQTVeA7QDBXx8Q4zM2T6A6VQD+XCJcwo+DlKdplKjWr+vtMQFcuG6WJCZ/2FIkmX7Eol8VHzTC6bWfstvIQeq5So1lF3jVXgnjcnk+MD7h5+mW8jV3gC+R2DYRDGZhB4r5F+Ctb+FH/Fh60mP0w79L7PP4Awv1MuMJT9JdK48v3ymVxeZLrXgH9WDdPv6/UzjiBAMKXTK5XswJdrGf7M2Gxp5LdsCmXxSd8SuorR2bq6MKMYie6o21fHCQtH7LDiLHF4NEHRP+RTdyVzo0D5BR4YaXr2sGA2gW+mAjmrE2M0918ZQub3cWnkWUsiBu0QwdUWiS1fp8V6GKPFlv2ydqhX1ea9Ek3cu7RAxHdnK3WDhkNvpoSAv4rEA6Jnc8l7DkyuEhsuRSJI7/OVWSkNPoorUXP1nwWMS4LOhxBF4kRo1wW5xI5fj6tHSrnq1cN6cO2yQp0uUWSTA+LtBNpwsPT0bmWDyj1mOOPlJp8xxzNt7J4xwblJvTg6/p2rOk7si2Eyln4OGD+CfDnuIour5bLToHfxwTzWGHGz718fBGV71V2FCZjan5ZOzSx2rGTtssK9Cgtx5Funu6pNDmnwPOZgouSWuzRM9fwPi0lPCYSLud0L49jhzuy2R6uJsZiMB4btxWH3PdmerHSPMt9H587gETaeLyNdmjUMRn1AYQxymXJ8SLZnRIpNp1r+KBSLx4KmVq1T92AxePjE17n8LHgymUbgAkZJkaixVkOdFvzh4gRGW1+qR36QKXFo1yWs7kcL3coSU/1TD/8Xp706ji8EDLrdu3QOyoxbhipexeTOXPD8tFZ6CSJiy9blMtizjWpwtjHh7xOCu7fU5ZYvJ60TOTLvqM+0yVcR5LyJPaPUy4L6JJZqupjjOPxKezjWuF+krAh5UpyCKOAnecp+mZKvE31mElV/hQz7qWV+rE1n0a8o2nvmh8EQwL0EsewqQI/BDKWtRe0Q6+rxLhy38fci9HzLCZWSvoXgQ7ge9qhyMiTamhb860mrCp4TAyxFQzzSDiTGOKcUfUCTzPJTJ7pToELTHCYcZ6XTyZBkWOBkdIcDlrTQZHz4Ij05T0+olTC/LAShc4bcp36bRCmMGNd3MlBDDZRh0SIHBhutazg2CWlYNMfkjJVufykBEuGoCfSDZwCn8eEi3coi5xT4D+IA0MaTdzWHK1+uTY9S3eQmFgrllB5E0+WPizDX4Ktm3GRl6c+75TQ7h15sgZCEL9jZyxIcuKQZrLgfB/B6SSFH7txBwNkDom0/YpMqFAhE0m3Nf+e2KTUSuwZki/wgT4h8Jq1sELbJEF+FcugI9OQ+oMXXuyyo2zfaTT5MMTq86YjH9frzmT+cn3tAh/6HeOWzS7wTUQ4AUAqz5C+LT5Iv3XQADfkYeBXLkvk57BKWFrQk1oRZTpKswZDjn5ACR/Us/udMEZararAPwBBkg3tQPfp0SVESs8Qu8D/SoSvhQz7apKAAuWyuEsNu4Mx4UJP9TsuVpJ0c4LzMb/YSSYKZbiiVvPxyCEIZWY81/I0Dli9kKJj54g7VN8lTUr+VNz2hqmQyfauXP4BkH4l26tYUQvul4s2Ap7rzWFOJYUupoGXJbkKSZekSLOKdsxnrkzPToFXMJmMF1J+oB2Sm7NExdZ8E3H6nTBR52UqZQN6kCFSkgWkfmbZBb6ECOb2ixiXu/mR05BVBD29pMvQI0blOAU+hS1cE17oPNvbgnlrZ5EkPUhUnAIvY4Jk3kqs8yTqeIwlXeK+vlKNdtrh8d6Wb6RdEvn3gjBbOxS5UQ0hy9Z8oWfjIqVRKkPzAtqG5915VIy+CxU/WfxxjT/6egEszG9pxZWrDxs+h7tyOYrIFaXz37RNX00DSuQLmOZ0k6b/wXWzkfT+LBQPaYfelHbCtuazSc7ZQdGvPIp5604uH91pa75AntnlJH44TTx0vpDcLwOKXH4ol7/6you4eN2RFMWbDagThlJJUgQpD7w0EfMeelO6yxrl8t8B7M2Ej3iqP5AjLZ+S1s8EdKfAJzJB7tGrs64FfuUryMJRIWHDuxiHPmwpQZ+WK5kcNENAN9lbhwmJcgr8ESb8JFIcfQvvL9p0Q1LmSz3lcisAE57s+3hbsZPuStO+mrpZgX44E0yKrp5WTOyemf4dKLOKLMCIS/RuofFEfOjFl75sUS4PcTAkBpcztOSLPK+3hCFpuIsjOHGqNXw0eiEBjREPP64Vrk4cMxfOekDWLcK0JMfSaoCOt8kE9LihhWsgLOZsIDRIXJkoPsbluOYyOHG/dDiMhCuX5UwtefAC/ln4vO7AZWkBDyVdFqfRJ3aopASS9mNbm3m3itxgvdVT9KfqQDLZkyVLVWSSFeB/OvElfHJwYoLq+q/cSrksYAvokcAMCLSo3MPAGjH/uCe1Q5IWbdRLJpJuVrRmeZnNruzjvV4niT9YdYWZnCLexz6ikCMB/i4mnD+SVl/dYP2tzFujtuFbzJBQ5IhvS7XCO6uR8Khn5bLY3MX2XpMvYBr6sgPdZXEhFs39c9ohiSKpvjDTTBezWoBbQdg3fMb3SqhRbwuurGTASTNw6FwheerONK8E6wdcolzOqAXwcHsXRfCjWZlgzVMrDQNqqatclueWPL++oR0ykSu1lo57eW+rDVfB6o9GIcJzzOZ5KwkCJNi/qjL3Qf6nni04SVKPgE20ah+vmHC2Z+M7tQIuE7MLvIICS14iL5uqiBnUKEvQxf1I/MWuGUnrTk1UkAbkTLLwqdBRQ7ow+V3lKpyAPzLjd0nywXSu5t18y/jGHyvx4iZ58EDBEC+cK7VC1/YAPJR08QUUZ5HPaoe+l5r+KhpkCbrJGAngju3+liJmmroMk163B8TeLXndIl/2vgVAPrayZTJTPU6Mx5nMz12YMIUI+4CxLxN2j/nGxyVbMkx936QySZrGJCEYymVJXjAuq3wzmW7vxj5NuDaNc0FCvvVXk+iW+7CXNQ4nstzfE4Y6VMYcJExDgbb8Kzvl3TLLfQt3FTuwvKZUJsMQIhmrJde7fJ3GOyg1X8Zqe5dXavoWTI60JLdWNREWnrk7/oQ30DgsQs4k+Z0mpk5j3BlaxCImOV+fKBFWoIT/Ki6DZwIijLxXmbemAhFOgT/MBIl9yySyJZpOZtt7+PySlB4zmPFpL58skLEm8M3mHr4tMcz2vP+paJv0OPbOjcNe5OMlbMXm4lvwbN8rOw3QowPyYFqUyxJJ8zkmLPMURXF2NZNcqYNMQbe7+DKyTI6YREEAlSb/Wv/e0Xwns7lPSOQgsr3ozRT0mFP/Ju2QnHkbuiiXJYHBHsQ4zs3T77JiRqagmyR/Pea1VIl9wrNiRNbjOJrP4jC61bewT9EmeV9dJiVT0MPnuuRTlQjR27RDQdrPBiv5P/O+/qu4z1gTgR9rh4I8eRmVzEHv8NixfBTMy3GAla5KltYjI35kMkzMOiknmXzRJjeTgcNBMgddxrULfBlRX9K/u30L52VNeJZMjo9lACfMN+HThNO9DHLBDqZ1TECXY5TSECvX8aG5VHKmy9+3Wz7cQidJlogdptireAa14BiQSZw0wwAu77JxcHRWx8M4M8cGdJlB4AIluVYkVZjkXY1ehyU/HyMfmhl/5JxJ1LdxxNdt1MnyEF+71h7sLxmdfUIHCLMImBUz7xIIm8G4Qit8YywAF1aNHegh8FN+jXG7T8Vxlm/clSRz49QQw/giAPnYBsJGZmwCYQMRNhKwsZeMlW9j0R79txJHoDKhnRn7Uy74CUI7sUmkJC/V6zfrDjTxdvvAb/1t+NHaudg8VoCPPeiRhMasZurtmMUtOIKAI0Am6X7AyKgMtZ1Hb2CQGltA2EKEl+EHv5vPfLwCyyQckN+Dz4J/4uo0Hj4mMJmcOJKYIPhJJnPGBPkJxgSWzwnixFjOVj9QeBgvgLESlklH5vX2YE33cmwOzLrZWPtG2vzGVtKHm1l8ESzAZLRiP9oJ+7JvnBj2M84MwXFHbtOiXOzD0zl4oVTiSPkLmHgrCVfaiGDXkd1Hft+IHDaaR9FteGrAGyRGyXZf7VOtPkEvR81gx8XQln7w2zBhXBv2s1qwJzHGs48JyBkpFakdz4wJViDBwb9Aco30gozrsZF6jnaH+I4Q/k4c7hLAMy+XsPGvnfjHkDc5mn1z7KU4yUJ47YBekZrwYiX+XpaKbRJW6OPSawPUSlTtQKBXIrX5fb9a1ORFw3GgKekNB/lYn9MbkOH1QHJT0usBhYzn0AQ9Y4bXw3BN0OsBhYzn0AQ9Y4bXw3BN0OsBhYzn0AQ9Y4bXw3BN0OsBhYzn0AQ9Y4bXw3BN0OsBhYzn0AQ9Y4bXw3BN0OsBhYzn0AQ9Y4bXw3BN0OsBhYzn0AQ9Y4bXw3BN0OsBhYzn0AQ9Y4bXw3BN0OsBhYzn0AQ9Y4bXw3BN0OsBhYzn0AQ9Y4bXw3D/D7/J9AX3sxyJAAAAAElFTkSuQmCC;" vertex="1" parent="1">
          <mxGeometry x="250" y="410" width="50" height="50" as="geometry" />
        </mxCell>
        <mxCell id="jRnjlJVptEnsLb_HcwkW-16" value="" style="shape=image;verticalLabelPosition=bottom;labelBackgroundColor=default;verticalAlign=top;aspect=fixed;imageAspect=0;image=data:image/png,iVBORw0KGgoAAAANSUhEUgAAAFAAAABQCAYAAACOEfKtAAAAAXNSR0IArs4c6QAABBhJREFUeF7t2k1oHHUYx/Hvk0U9VBQPFg9CD/ZiRCiCVyHFohZptSauaFWQkrozkdqLYCl90WJBfKHEzC5RFKrFSC3qSQlaIr0JlqJQT0J7KGJKEe1FNJ1H/v99yWY7lcJDZwd9FgLL7vyYnc/+5v/MLBH8YRIQU9rDOKCxBA7ogEYBY9wb6IBGAWPcG+iARgFj3BvogEYBY9wb6IBGAWPcG+iARgFj3BvogEYBY9wb6IBGAWPcG+iARgFj3BvogEYBY9wb6IBGAWPcG+iARgFj3BvogEYBY7ySDdSEtcBTEP/1ZJEaCzLNaeOxXpN45QA1YQplF8JtHUCNR64cpMluCc8q9KgUoE7xPDkZ8AvKeyinGOEO4PUO5iEydlYJsTKA+gL3s8Q8Ek/b9WQsdKG0wQTCJxExwDaZJOExhN9khm+GWcjqACZsB5oo39Jk/WDLBhDnEOrAeXLqjPCrZPw0DMjqADZ4EeEt4CQZ9xadpisQl7XCmniSnM3S4lzZiNUBTFgXIdqT9wHJmB/E0IQEeKezzeDb8/zOhBzhjzIRKwMYB23KaygvAz+wxBaZ5ed+DE15FWV3IZDyOCOMM8MTZQ6ZagGG9iWxYQ3gU86zVY7yVxdM2++/Cey8DFFZYBV1eYPF/0UDNWGdZJy67DRtI4WJewzhGS4x2b+2RcSUFspkAeIBmuz5zzdQU+5DeRf4WDL2acKd/VNUJ7ie1cyhPAIcoMZc/51Ip4lHyPmcEebimphziFb514iln8KaspGcjxBu6TRoP7CJnC3S4kzvdE3inUgYGmuAe6hRH0QMTetM5s1kPF1m87qfs3zAhA+BrQXr1AlyxqW1vIZ1TtfQxDFyHuY6Lsj0ysHSvstDhoEX9l0+4HZGqfEs8FIB4pf8SV3e5+KKwZHyEDAO3M1FHpTDXChzUPzbvsoHnOIVci4Bewu/QOEYi9TlaNym/TtCwo3xVk7ZCHxBxqPDatwgZvmA7Sn7NrCj4Js9E27NpMV3BRfRaxG+R7mJnDFpsVCFFpYO2F2zSDh8hbVwf5jMRTiacBwYA664TdmoQwHsIYYnDY4j3Arx2i9M5PCZCoF6gMpz0uSDsrGK9jc0wN76to3buYGbmeE0KTvQ+INC+Fz7JIug3XUwrJnh7yxLbJJZfnTAAgFN2YYy20H8DOEsyiiwIb5WY4NM83UV8IZyGXM1B64NnkTYBdzVt/1XCAeZ4URVJnBlAXtrZMoof7M6Is4u/0J9NV9CWdsMfQ0s60Cv1X4c0CjrgA5oFDDGvYEOaBQwxr2BDmgUMMa9gQ5oFDDGvYEOaBQwxr2BDmgUMMa9gQ5oFDDGvYEOaBQwxr2BDmgUMMa9gQ5oFDDGvYEOaBQwxr2BDmgUMMa9gQ5oFDDGvYFGwH8A9sICYP9lPiYAAAAASUVORK5CYII=;" vertex="1" parent="1">
          <mxGeometry x="480" y="410" width="50" height="50" as="geometry" />
        </mxCell>
        <mxCell id="jRnjlJVptEnsLb_HcwkW-17" value="EIP" style="text;html=1;strokeColor=none;fillColor=none;align=center;verticalAlign=middle;whiteSpace=wrap;rounded=0;" vertex="1" parent="1">
          <mxGeometry x="525" y="420" width="75" height="30" as="geometry" />
        </mxCell>
        <mxCell id="jRnjlJVptEnsLb_HcwkW-32" style="edgeStyle=orthogonalEdgeStyle;rounded=0;orthogonalLoop=1;jettySize=auto;html=1;exitX=0.5;exitY=1;exitDx=0;exitDy=0;" edge="1" parent="1" source="jRnjlJVptEnsLb_HcwkW-20" target="jRnjlJVptEnsLb_HcwkW-26">
          <mxGeometry relative="1" as="geometry" />
        </mxCell>
        <mxCell id="jRnjlJVptEnsLb_HcwkW-34" value="轮询" style="edgeLabel;html=1;align=center;verticalAlign=middle;resizable=0;points=[];" vertex="1" connectable="0" parent="jRnjlJVptEnsLb_HcwkW-32">
          <mxGeometry x="-0.069" relative="1" as="geometry">
            <mxPoint as="offset" />
          </mxGeometry>
        </mxCell>
        <mxCell id="jRnjlJVptEnsLb_HcwkW-20" value="ECS" style="rounded=0;whiteSpace=wrap;html=1;verticalAlign=top;" vertex="1" parent="1">
          <mxGeometry x="160" y="550" width="540" height="90" as="geometry" />
        </mxCell>
        <mxCell id="jRnjlJVptEnsLb_HcwkW-21" value="" style="shape=image;verticalLabelPosition=bottom;labelBackgroundColor=default;verticalAlign=top;aspect=fixed;imageAspect=0;image=data:image/png,iVBORw0KGgoAAAANSUhEUgAAAJYAAACWCAYAAAA8AXHiAAAAAXNSR0IArs4c6QAACa5JREFUeF7tmmUIdUsVhp+rIHZ3YCEGdnd3YbeCiYndgYmKehW77hUxwQ7s7u4CwQ5sERNF5YUZGIZ96rtncda3eNe/s8/stWe969kza2b2MdisQIACxwT4tEsrgMEyBCEKGKwQWe3UYJmBEAUMVoisdmqwzECIAgYrRFY7NVhmIEQBgxUiq50aLDMQooDBCpHVTg2WGQhRwGCFyGqnBssMhChgsEJktVODZQZCFDBYIbLaqcEyAyEKGKwQWe3UYJmBEAUMVoisdmqwzECIAgYrRFY7NVhmIEQBgxUiq50aLDMQooDBCpHVTg2WGQhRwGCFyGqnBssMhChgsEJktVODZQZCFDBYIbLaqcEyAyEKGKwQWe3UYJmBEAUMVoisdmqwzECIAgYrRFY7NVhmIEQBgxUiq50aLDMQooDBCpHVTg2WGQhRwGCFyGqnBssMhChgsEJktVODZQZCFDBYIbLaqcEyAyEKGKwQWe3UYJmBEAUMVoisdmqwzECIAgYrRFY7NVhmIEQBgxUiq50aLDMQooDBCpHVTg2WGQhRwGCFyGqnGcC6K3AP4OfA44BfbJmWGwJ3B34KvBT4ycJ9ZwHevKW/vwI3W9P2fsANgG8Dr5j6+Vjg+sB3gCcBf9rymXcCbt3uexHw+3bfaYGXAWcF3gs8bwt/FwAeD5yr6fjFLe4Ja3JosJ7RROgB/rkl9zMbIpbgvx7afAS43sI9LwYesIN6dwHesND+3sArh+sfBAS27E3AHYb/9IJcB/jhhudeFvjy0OblgOCV6Vl6ZjfF8aA1/s4OfB84dWvzK+AcO8S996aHBuvHwHmmqDRiSfTfrIn2msDHh/9/C2h0Gu28Lbkn3kE1wXBB4H/TPRo97jtc08hypvZ7bqvL3wCuAvx9zbPvBbxq+P8LwJXa70cDz5ruvX8bxWaXAuizwLmHPz4NXH2HuPfe9NBg6c0620JUX2nC/GNFxBoRNEp1+yNwhqmtRh5NNd0k/r8X/AnICw/XbwW8Y2r3auCewzVNm6cCTg78bUUfNYXdfAHS3vw+bUrtvxXz5dqPkzY4BfloV20Q9WunAD4HXHxo9Lv2Yv5s77Ts4DArWApBiVlV82wC62LAtwYdPgFca4UuAlKjpJIp+xpwmT2AJReqjR6x4rnrwNItqpkEW5/edE0j86UAvZAnAj4wlQD/AgSf7juoZQZLwjwbeMyCQpvA+ihw7eG+iwLfXaP07YCLDP+/BNCb3+1IRqx+rxYmr1l49iawdMs1AL0Uo3XwBe3Dpv9uA7ztoES1h2cDSwXsWMuom0uJWQfWdYEPD+K+HtDKM8JOtlBHPR946PQw1YSfnK5tA5Zu0cr3+OleFf192ux/PRl4SkSQR+IzG1gdgNdtSMw6sDQFaiqU/RM4f5s69Fuj2NV2FOqta0a7JbCuDNykLf37o/4CXLGt3Pq1bcFS++esmVL1v0YpjVZpLCNYGmHmYV6J0UqxL+FXgXX7ad/qmcN2hpKtum0XUy0jMLXiGhcZ/wG0JbJUvGs1+Hngna14789THaf6qO9V7QKW8vRu4KYLnVc9pbpK9VUaOzRYvwS0B9NNI5bAkgkCwdDtR8AVWmI08qiO6taX/3cDXjtcfyLw9PZbU+pxOyrfp2FtC2h7oJtAPw2wasQSWPpPK7ZLDvdp01Ijl2zeG/tSi29VF9+zAiw9S6NkKjs0WPN2wwjWKQElYiyq+9upN3TVdsMIq3bAT98UP12Dbt3u+pgc7aL3KXWX4l0jloCSaRf8q8Oel65p2rptA0s7+N3G7YYZErXTCLfK3gJoAZLGMoPVE/NNQFB0U2J0hDOOWH8AztgaPARQAd1Nu9laFGwyjZR3HhrdGHh/+32kYOl2FdkajUbTiYOOosbdfBXkl1/o5MOB507Xl4r3Ry602xRz2P/ZwVLgKrY/NSnwsWk7YdwJ1xSkUavDqDNE1Un/XaOiah8t47tpV3/crjghYMnnHYE3Ts/XynU8hlqaCm/ZRrgxT6q1bgFoahxLBZ0A3AjQcdPB7WgASyLpDG9eKY7izTvvTwVUX3XbtL+jOqXXPrpHU6Cmwm4nFCz5mc9F5+TPU6H6oy2KkwwNdVSkekonEioV9FsvTTedCKgO/d6hyTpawJJOmg40LSzZDJZGK63CtGqTaep41Ip7NVodO/wngLUIGG0fYEnreaU4PmMES7Coz2MJoHpUK+Px8P1CbZrV8VI3HYJrwSBNDmZHE1g6wnhf+3RlFmzprFCfoTxwR2V1lqjDa02l+wZL/pZWiv05HSzF+fXp/E8jlEYqjVCzabp8+3RRtaFqxIPZocHSpx5667otHQCP4mj4Vy0yHhrr/x8sXNM2ht5eJWpb00bk0sj2AuDBgxOBd872e/664RLTOeX8bK0UNRrNX2PopVHNpIPrd003bdLlacATpnv07diHtg183+0ODZaSpaTJVGTr8HfTEK63XitDFard9K2SvlmabV7prdNPz9VopT2q2VTvqCjuB8Lj8ckLh2+lNu1Fdb9awWoB0rczdF1AqSDXs1TzdZM+8xHRUhw6IdBHg90u3Ua+fTOzlb9Dg6VOavWlEUifuehDv21N3y6pUNUO+KrT/DNP+2DrfOv7L42gq0wjjRYB2lvr+1S9raYjffW5dNi87pk6ZFY9JGg16nbT5zL6GkMH5/q2altTbXi+NjWOX3dse//e2mUAa2/B2FEeBQxWnlyU6onBKpXOPMEYrDy5KNUTg1UqnXmCMVh5clGqJwarVDrzBGOw8uSiVE8MVql05gnGYOXJRameGKxS6cwTjMHKk4tSPTFYpdKZJxiDlScXpXpisEqlM08wBitPLkr1xGCVSmeeYAxWnlyU6onBKpXOPMEYrDy5KNUTg1UqnXmCMVh5clGqJwarVDrzBGOw8uSiVE8MVql05gnGYOXJRameGKxS6cwTjMHKk4tSPTFYpdKZJxiDlScXpXpisEqlM08wBitPLkr1xGCVSmeeYAxWnlyU6onBKpXOPMEYrDy5KNUTg1UqnXmCMVh5clGqJwarVDrzBGOw8uSiVE8MVql05gnGYOXJRameGKxS6cwTjMHKk4tSPTFYpdKZJxiDlScXpXpisEqlM08wBitPLkr1xGCVSmeeYAxWnlyU6onBKpXOPMEYrDy5KNUTg1UqnXmCMVh5clGqJwarVDrzBGOw8uSiVE8MVql05gnGYOXJRameGKxS6cwTjMHKk4tSPTFYpdKZJxiDlScXpXpisEqlM08wBitPLkr1xGCVSmeeYAxWnlyU6onBKpXOPMEYrDy5KNUTg1UqnXmC+T99vGym2byEsQAAAABJRU5ErkJggg==;" vertex="1" parent="1">
          <mxGeometry x="405" y="580" width="50" height="50" as="geometry" />
        </mxCell>
        <mxCell id="jRnjlJVptEnsLb_HcwkW-45" style="edgeStyle=orthogonalEdgeStyle;rounded=0;orthogonalLoop=1;jettySize=auto;html=1;entryX=0.5;entryY=0;entryDx=0;entryDy=0;" edge="1" parent="1" source="jRnjlJVptEnsLb_HcwkW-26" target="jRnjlJVptEnsLb_HcwkW-35">
          <mxGeometry relative="1" as="geometry" />
        </mxCell>
        <mxCell id="jRnjlJVptEnsLb_HcwkW-26" value="ECS - 应用服务器" style="rounded=0;whiteSpace=wrap;html=1;verticalAlign=top;" vertex="1" parent="1">
          <mxGeometry x="160" y="700" width="540" height="90" as="geometry" />
        </mxCell>
        <mxCell id="jRnjlJVptEnsLb_HcwkW-28" value="王知之" style="whiteSpace=wrap;html=1;aspect=fixed;" vertex="1" parent="1">
          <mxGeometry x="190" y="715" width="60" height="60" as="geometry" />
        </mxCell>
        <mxCell id="jRnjlJVptEnsLb_HcwkW-29" value="王知之" style="whiteSpace=wrap;html=1;aspect=fixed;" vertex="1" parent="1">
          <mxGeometry x="290" y="715" width="60" height="60" as="geometry" />
        </mxCell>
        <mxCell id="jRnjlJVptEnsLb_HcwkW-30" value="LearnMore" style="whiteSpace=wrap;html=1;aspect=fixed;" vertex="1" parent="1">
          <mxGeometry x="492.5" y="715" width="60" height="60" as="geometry" />
        </mxCell>
        <mxCell id="jRnjlJVptEnsLb_HcwkW-31" value="LearnMore" style="whiteSpace=wrap;html=1;aspect=fixed;" vertex="1" parent="1">
          <mxGeometry x="597.5" y="715" width="60" height="60" as="geometry" />
        </mxCell>
        <mxCell id="jRnjlJVptEnsLb_HcwkW-46" style="edgeStyle=orthogonalEdgeStyle;rounded=0;orthogonalLoop=1;jettySize=auto;html=1;entryX=0.5;entryY=0;entryDx=0;entryDy=0;" edge="1" parent="1" source="jRnjlJVptEnsLb_HcwkW-35" target="jRnjlJVptEnsLb_HcwkW-40">
          <mxGeometry relative="1" as="geometry" />
        </mxCell>
        <mxCell id="jRnjlJVptEnsLb_HcwkW-35" value="ECS - 基础服务器" style="rounded=0;whiteSpace=wrap;html=1;verticalAlign=top;" vertex="1" parent="1">
          <mxGeometry x="160" y="850" width="540" height="90" as="geometry" />
        </mxCell>
        <mxCell id="jRnjlJVptEnsLb_HcwkW-36" value="XXL-JOB" style="whiteSpace=wrap;html=1;aspect=fixed;" vertex="1" parent="1">
          <mxGeometry x="190" y="865" width="60" height="60" as="geometry" />
        </mxCell>
        <mxCell id="jRnjlJVptEnsLb_HcwkW-37" value="RocketMQ" style="whiteSpace=wrap;html=1;aspect=fixed;" vertex="1" parent="1">
          <mxGeometry x="290" y="865" width="60" height="60" as="geometry" />
        </mxCell>
        <mxCell id="jRnjlJVptEnsLb_HcwkW-38" value="Nacos" style="whiteSpace=wrap;html=1;aspect=fixed;" vertex="1" parent="1">
          <mxGeometry x="492.5" y="865" width="60" height="60" as="geometry" />
        </mxCell>
        <mxCell id="jRnjlJVptEnsLb_HcwkW-39" value="Seata" style="whiteSpace=wrap;html=1;aspect=fixed;" vertex="1" parent="1">
          <mxGeometry x="600" y="865" width="60" height="60" as="geometry" />
        </mxCell>
        <mxCell id="jRnjlJVptEnsLb_HcwkW-40" value="ECS - 应用服务器" style="rounded=0;whiteSpace=wrap;html=1;verticalAlign=top;" vertex="1" parent="1">
          <mxGeometry x="160" y="1000" width="540" height="90" as="geometry" />
        </mxCell>
        <mxCell id="jRnjlJVptEnsLb_HcwkW-41" value="优惠券" style="whiteSpace=wrap;html=1;aspect=fixed;" vertex="1" parent="1">
          <mxGeometry x="190" y="1015" width="60" height="60" as="geometry" />
        </mxCell>
        <mxCell id="jRnjlJVptEnsLb_HcwkW-42" value="营销活动" style="whiteSpace=wrap;html=1;aspect=fixed;" vertex="1" parent="1">
          <mxGeometry x="290" y="1015" width="60" height="60" as="geometry" />
        </mxCell>
        <mxCell id="jRnjlJVptEnsLb_HcwkW-43" value="短信" style="whiteSpace=wrap;html=1;aspect=fixed;" vertex="1" parent="1">
          <mxGeometry x="492.5" y="1015" width="60" height="60" as="geometry" />
        </mxCell>
        <mxCell id="jRnjlJVptEnsLb_HcwkW-44" value="..." style="whiteSpace=wrap;html=1;aspect=fixed;" vertex="1" parent="1">
          <mxGeometry x="597.5" y="1015" width="60" height="60" as="geometry" />
        </mxCell>
      </root>
    </mxGraphModel>
  </diagram>
</mxfile>
